<svg width="270" height="269" viewBox="0 0 270 269" fill="none" xmlns="http://www.w3.org/2000/svg">
<path fill-rule="evenodd" clip-rule="evenodd" d="M245.312 170.554C231.996 200.698 201.436 217.798 170.614 229.288C140.768 240.415 108.542 243.99 78.8466 232.612C48.0032 220.795 21.5521 198.158 9.22577 167.452C-3.12283 136.691 -4.14554 99.412 14.2917 71.7995C31.0258 46.7377 67.181 51.2325 94.7993 39.2933C123.858 26.7313 147.128 -6.47189 177.806 1.1134C209.992 9.07142 226.522 44.0485 238.814 74.9009C251.097 105.733 258.746 140.143 245.312 170.554Z" fill="#F8B9E6"/>
<path fill-rule="evenodd" clip-rule="evenodd" d="M242.143 199.103C228.205 221.656 214.279 244.676 190.35 255.261C161.917 267.838 128.523 275.742 102.049 261.074C74.8712 246.017 64.3145 213.091 58.0851 181.981C51.9625 151.403 48.7564 116.711 68.0951 91.5022C86.4785 67.5382 119.93 67.6437 149.115 63.3171C173.991 59.6294 199.077 57.1619 220.886 68.8512C244.045 81.2638 264.87 101.161 269.197 127.679C273.392 153.381 256.078 176.556 242.143 199.103Z" fill="#F8B9E6"/>
<path fill-rule="evenodd" clip-rule="evenodd" d="M244.235 191.844C230.442 222.951 192.639 230.1 160.17 240.099C128.35 249.898 94.1868 263.759 65.5228 246.879C35.4655 229.179 20.6622 192.924 20.7 157.968C20.7344 126.133 41.9379 100.277 65.7042 79.106C88.3414 58.9411 115.579 43.9784 145.727 46.5953C177.941 49.3916 207.244 66.1904 225.405 92.9686C245.198 122.153 258.552 159.553 244.235 191.844Z" fill="#F8B9E6"/>
</svg>
